<?xml version="1.0" encoding="UTF-8"?>
<svg xmlns="http://www.w3.org/2000/svg" version="1.1" width="250" height="250" viewBox="0 0 250 250"><rect x="0" y="0" width="250" height="250" fill="#ffffff"/><g transform="scale(4.386)"><g transform="translate(0,0)"><path fill-rule="evenodd" d="M9 0L9 1L8 1L8 2L9 2L9 1L11 1L11 2L10 2L10 4L9 4L9 3L8 3L8 4L9 4L9 5L8 5L8 7L9 7L9 8L6 8L6 9L7 9L7 10L5 10L5 8L0 8L0 11L1 11L1 12L0 12L0 20L2 20L2 21L0 21L0 22L2 22L2 23L0 23L0 25L1 25L1 26L0 26L0 30L3 30L3 31L4 31L4 32L0 32L0 38L1 38L1 39L0 39L0 40L3 40L3 42L2 42L2 41L1 41L1 42L0 42L0 48L5 48L5 47L7 47L7 48L6 48L6 49L7 49L7 48L8 48L8 47L7 47L7 46L11 46L11 48L10 48L10 47L9 47L9 49L8 49L8 51L9 51L9 49L11 49L11 50L10 50L10 53L9 53L9 52L8 52L8 57L13 57L13 55L14 55L14 57L15 57L15 56L16 56L16 57L22 57L22 56L23 56L23 55L24 55L24 56L25 56L25 57L26 57L26 56L27 56L27 57L28 57L28 56L31 56L31 57L32 57L32 56L33 56L33 53L34 53L34 52L33 52L33 51L32 51L32 50L34 50L34 51L35 51L35 50L37 50L37 52L35 52L35 53L37 53L37 54L36 54L36 55L35 55L35 54L34 54L34 55L35 55L35 56L34 56L34 57L38 57L38 56L36 56L36 55L39 55L39 54L40 54L40 53L39 53L39 54L38 54L38 51L39 51L39 50L37 50L37 48L36 48L36 47L37 47L37 44L39 44L39 46L38 46L38 47L39 47L39 48L42 48L42 49L41 49L41 50L43 50L43 51L42 51L42 52L43 52L43 53L42 53L42 54L41 54L41 55L40 55L40 56L41 56L41 57L42 57L42 56L43 56L43 57L44 57L44 56L45 56L45 53L47 53L47 54L46 54L46 56L47 56L47 54L48 54L48 55L49 55L49 56L48 56L48 57L49 57L49 56L50 56L50 57L51 57L51 56L52 56L52 54L53 54L53 56L55 56L55 57L56 57L56 56L55 56L55 55L54 55L54 52L55 52L55 53L56 53L56 50L57 50L57 49L53 49L53 48L55 48L55 47L56 47L56 48L57 48L57 47L56 47L56 46L57 46L57 45L56 45L56 46L55 46L55 45L54 45L54 46L53 46L53 48L52 48L52 47L50 47L50 46L49 46L49 45L50 45L50 44L51 44L51 45L53 45L53 44L57 44L57 43L55 43L55 42L52 42L52 41L53 41L53 40L55 40L55 39L57 39L57 37L54 37L54 38L55 38L55 39L52 39L52 38L51 38L51 39L50 39L50 40L49 40L49 41L48 41L48 43L47 43L47 42L45 42L45 43L42 43L42 42L44 42L44 40L45 40L45 39L47 39L47 40L48 40L48 39L49 39L49 37L50 37L50 36L51 36L51 37L53 37L53 36L55 36L55 35L56 35L56 36L57 36L57 35L56 35L56 34L57 34L57 33L56 33L56 32L57 32L57 31L56 31L56 30L57 30L57 29L56 29L56 30L55 30L55 31L54 31L54 29L53 29L53 28L55 28L55 27L53 27L53 26L52 26L52 25L51 25L51 26L50 26L50 24L49 24L49 25L48 25L48 23L49 23L49 21L47 21L47 20L46 20L46 19L48 19L48 20L50 20L50 19L51 19L51 18L50 18L50 16L52 16L52 15L53 15L53 16L55 16L55 17L56 17L56 18L55 18L55 19L52 19L52 20L51 20L51 22L50 22L50 23L52 23L52 24L53 24L53 25L54 25L54 26L55 26L55 25L54 25L54 24L55 24L55 23L56 23L56 26L57 26L57 23L56 23L56 22L57 22L57 21L54 21L54 22L55 22L55 23L52 23L52 22L53 22L53 21L52 21L52 20L56 20L56 18L57 18L57 17L56 17L56 14L57 14L57 12L55 12L55 11L54 11L54 10L53 10L53 9L54 9L54 8L53 8L53 9L52 9L52 8L51 8L51 9L52 9L52 10L50 10L50 8L49 8L49 6L48 6L48 7L47 7L47 5L48 5L48 0L39 0L39 1L37 1L37 0L35 0L35 1L34 1L34 0L32 0L32 1L34 1L34 2L32 2L32 3L33 3L33 4L36 4L36 5L33 5L33 6L32 6L32 4L27 4L27 3L26 3L26 5L25 5L25 6L24 6L24 7L23 7L23 6L22 6L22 7L21 7L21 6L20 6L20 5L19 5L19 6L18 6L18 8L17 8L17 5L18 5L18 4L20 4L20 3L21 3L21 4L22 4L22 5L24 5L24 4L25 4L25 2L24 2L24 4L22 4L22 3L23 3L23 2L22 2L22 1L23 1L23 0L21 0L21 1L20 1L20 0L19 0L19 1L20 1L20 2L18 2L18 1L15 1L15 0L14 0L14 1L11 1L11 0ZM24 0L24 1L25 1L25 0ZM27 0L27 1L26 1L26 2L28 2L28 3L29 3L29 2L28 2L28 1L29 1L29 0ZM30 0L30 1L31 1L31 0ZM40 1L40 2L38 2L38 3L37 3L37 2L34 2L34 3L37 3L37 4L38 4L38 5L39 5L39 7L40 7L40 6L41 6L41 8L38 8L38 10L37 10L37 9L36 9L36 8L37 8L37 7L38 7L38 6L37 6L37 7L36 7L36 6L35 6L35 7L34 7L34 6L33 6L33 7L34 7L34 8L32 8L32 6L31 6L31 8L32 8L32 10L31 10L31 11L30 11L30 10L28 10L28 11L26 11L26 12L25 12L25 10L27 10L27 9L25 9L25 7L26 7L26 6L25 6L25 7L24 7L24 9L25 9L25 10L22 10L22 9L23 9L23 7L22 7L22 8L21 8L21 7L20 7L20 6L19 6L19 9L15 9L15 8L16 8L16 6L15 6L15 8L14 8L14 6L13 6L13 7L12 7L12 5L14 5L14 4L15 4L15 5L16 5L16 4L18 4L18 3L17 3L17 2L13 2L13 4L12 4L12 5L11 5L11 7L12 7L12 8L14 8L14 9L12 9L12 13L14 13L14 17L15 17L15 18L17 18L17 19L16 19L16 20L15 20L15 21L12 21L12 20L11 20L11 19L12 19L12 17L11 17L11 16L13 16L13 14L11 14L11 12L10 12L10 10L9 10L9 11L6 11L6 12L8 12L8 14L7 14L7 13L6 13L6 14L7 14L7 15L5 15L5 14L2 14L2 12L1 12L1 17L2 17L2 15L3 15L3 18L5 18L5 19L2 19L2 18L1 18L1 19L2 19L2 20L4 20L4 21L5 21L5 25L6 25L6 26L7 26L7 25L11 25L11 26L10 26L10 28L9 28L9 30L10 30L10 31L8 31L8 32L7 32L7 31L5 31L5 33L3 33L3 34L8 34L8 32L9 32L9 33L10 33L10 31L11 31L11 33L12 33L12 34L11 34L11 36L10 36L10 34L9 34L9 35L8 35L8 36L7 36L7 35L5 35L5 36L4 36L4 35L3 35L3 36L4 36L4 39L3 39L3 38L2 38L2 35L1 35L1 38L2 38L2 39L3 39L3 40L4 40L4 42L3 42L3 43L2 43L2 42L1 42L1 43L2 43L2 44L1 44L1 45L2 45L2 46L1 46L1 47L2 47L2 46L3 46L3 47L5 47L5 46L4 46L4 44L5 44L5 45L6 45L6 46L7 46L7 45L6 45L6 44L9 44L9 45L12 45L12 47L13 47L13 48L15 48L15 49L12 49L12 48L11 48L11 49L12 49L12 50L11 50L11 52L12 52L12 50L14 50L14 51L15 51L15 49L16 49L16 50L18 50L18 51L19 51L19 53L18 53L18 52L17 52L17 51L16 51L16 52L15 52L15 53L16 53L16 54L14 54L14 55L16 55L16 56L17 56L17 55L20 55L20 54L19 54L19 53L21 53L21 54L22 54L22 55L23 55L23 54L24 54L24 53L23 53L23 52L22 52L22 53L21 53L21 49L25 49L25 52L26 52L26 49L25 49L25 48L27 48L27 47L25 47L25 48L24 48L24 47L22 47L22 46L23 46L23 42L22 42L22 43L21 43L21 44L22 44L22 45L19 45L19 44L20 44L20 42L21 42L21 41L20 41L20 40L22 40L22 41L23 41L23 39L24 39L24 41L25 41L25 38L27 38L27 39L26 39L26 40L27 40L27 41L26 41L26 42L24 42L24 45L25 45L25 46L26 46L26 45L27 45L27 46L29 46L29 45L32 45L32 46L31 46L31 47L30 47L30 48L31 48L31 50L32 50L32 49L34 49L34 50L35 50L35 49L36 49L36 48L31 48L31 47L32 47L32 46L36 46L36 44L37 44L37 43L38 43L38 42L39 42L39 43L41 43L41 44L40 44L40 45L43 45L43 44L42 44L42 43L41 43L41 41L43 41L43 40L44 40L44 39L45 39L45 36L46 36L46 38L47 38L47 37L48 37L48 36L46 36L46 35L45 35L45 34L44 34L44 33L45 33L45 32L46 32L46 34L47 34L47 35L49 35L49 36L50 36L50 35L51 35L51 34L50 34L50 33L52 33L52 34L53 34L53 35L52 35L52 36L53 36L53 35L54 35L54 34L53 34L53 33L52 33L52 32L53 32L53 31L51 31L51 32L50 32L50 31L48 31L48 29L46 29L46 28L48 28L48 26L47 26L47 25L45 25L45 24L44 24L44 23L43 23L43 22L42 22L42 23L41 23L41 22L40 22L40 21L41 21L41 20L39 20L39 19L40 19L40 17L43 17L43 16L44 16L44 18L48 18L48 17L49 17L49 16L50 16L50 14L51 14L51 13L50 13L50 10L48 10L48 11L46 11L46 12L48 12L48 13L49 13L49 15L46 15L46 14L47 14L47 13L45 13L45 12L44 12L44 11L43 11L43 10L45 10L45 8L46 8L46 10L47 10L47 9L49 9L49 8L46 8L46 6L45 6L45 5L47 5L47 3L46 3L46 4L45 4L45 3L44 3L44 2L43 2L43 1ZM45 1L45 2L47 2L47 1ZM30 2L30 3L31 3L31 2ZM40 2L40 3L41 3L41 5L43 5L43 6L42 6L42 8L43 8L43 6L44 6L44 8L45 8L45 6L44 6L44 4L43 4L43 2ZM15 3L15 4L16 4L16 3ZM39 4L39 5L40 5L40 4ZM27 5L27 8L30 8L30 5ZM9 6L9 7L10 7L10 6ZM28 6L28 7L29 7L29 6ZM35 7L35 8L34 8L34 9L33 9L33 10L32 10L32 12L33 12L33 13L32 13L32 16L33 16L33 17L30 17L30 18L28 18L28 19L27 19L27 20L26 20L26 21L25 21L25 18L27 18L27 17L28 17L28 16L29 16L29 15L27 15L27 16L26 16L26 15L25 15L25 14L26 14L26 13L27 13L27 14L28 14L28 13L27 13L27 12L26 12L26 13L24 13L24 14L22 14L22 15L21 15L21 16L20 16L20 17L19 17L19 13L18 13L18 12L17 12L17 11L18 11L18 10L17 10L17 11L15 11L15 16L16 16L16 15L17 15L17 17L19 17L19 18L18 18L18 21L17 21L17 22L18 22L18 21L19 21L19 22L20 22L20 23L17 23L17 24L16 24L16 23L15 23L15 22L16 22L16 21L15 21L15 22L14 22L14 23L15 23L15 24L14 24L14 25L13 25L13 27L12 27L12 26L11 26L11 27L12 27L12 28L10 28L10 30L12 30L12 31L13 31L13 30L14 30L14 31L15 31L15 30L16 30L16 31L17 31L17 32L13 32L13 33L14 33L14 34L15 34L15 36L13 36L13 37L12 37L12 38L10 38L10 39L8 39L8 38L6 38L6 37L7 37L7 36L6 36L6 37L5 37L5 38L6 38L6 39L5 39L5 40L6 40L6 41L5 41L5 43L8 43L8 42L9 42L9 41L10 41L10 43L12 43L12 45L14 45L14 46L13 46L13 47L15 47L15 48L16 48L16 49L17 49L17 48L18 48L18 49L19 49L19 51L20 51L20 49L21 49L21 48L22 48L22 47L21 47L21 48L19 48L19 45L18 45L18 44L16 44L16 42L15 42L15 41L14 41L14 40L15 40L15 39L16 39L16 41L19 41L19 39L20 39L20 38L19 38L19 39L18 39L18 38L17 38L17 37L16 37L16 36L18 36L18 37L20 37L20 36L19 36L19 35L21 35L21 37L22 37L22 38L21 38L21 39L23 39L23 38L24 38L24 37L26 37L26 36L25 36L25 35L31 35L31 34L32 34L32 36L31 36L31 38L30 38L30 39L31 39L31 38L32 38L32 36L35 36L35 38L34 38L34 39L32 39L32 40L30 40L30 41L31 41L31 42L29 42L29 43L32 43L32 44L33 44L33 43L35 43L35 42L32 42L32 40L33 40L33 41L34 41L34 39L36 39L36 38L38 38L38 39L37 39L37 40L35 40L35 41L37 41L37 42L36 42L36 43L37 43L37 42L38 42L38 39L39 39L39 40L41 40L41 39L40 39L40 38L41 38L41 37L40 37L40 38L38 38L38 35L39 35L39 34L40 34L40 36L42 36L42 38L44 38L44 36L45 36L45 35L44 35L44 36L43 36L43 35L41 35L41 34L43 34L43 33L44 33L44 32L45 32L45 31L44 31L44 30L43 30L43 29L44 29L44 28L46 28L46 27L47 27L47 26L44 26L44 24L43 24L43 25L42 25L42 26L44 26L44 27L43 27L43 29L42 29L42 30L43 30L43 31L44 31L44 32L41 32L41 31L40 31L40 30L41 30L41 29L39 29L39 28L38 28L38 29L39 29L39 30L38 30L38 31L39 31L39 32L38 32L38 33L39 33L39 34L36 34L36 33L37 33L37 32L36 32L36 31L37 31L37 30L36 30L36 31L35 31L35 30L33 30L33 29L34 29L34 28L35 28L35 27L39 27L39 26L38 26L38 25L39 25L39 24L41 24L41 23L40 23L40 22L38 22L38 21L39 21L39 20L38 20L38 21L37 21L37 20L34 20L34 19L35 19L35 18L34 18L34 16L33 16L33 15L35 15L35 16L36 16L36 19L37 19L37 16L36 16L36 14L37 14L37 13L39 13L39 12L36 12L36 14L33 14L33 13L34 13L34 12L33 12L33 10L34 10L34 11L37 11L37 10L34 10L34 9L35 9L35 8L36 8L36 7ZM10 8L10 9L11 9L11 8ZM20 8L20 9L19 9L19 10L20 10L20 9L21 9L21 8ZM55 8L55 9L56 9L56 10L57 10L57 9L56 9L56 8ZM1 9L1 11L3 11L3 12L4 12L4 13L5 13L5 12L4 12L4 11L5 11L5 10L4 10L4 9L3 9L3 10L2 10L2 9ZM14 9L14 10L15 10L15 9ZM42 9L42 10L41 10L41 11L40 11L40 10L38 10L38 11L40 11L40 12L41 12L41 11L42 11L42 12L43 12L43 13L42 13L42 14L41 14L41 13L40 13L40 14L38 14L38 17L40 17L40 16L41 16L41 15L42 15L42 16L43 16L43 15L42 15L42 14L43 14L43 13L44 13L44 14L45 14L45 13L44 13L44 12L43 12L43 11L42 11L42 10L43 10L43 9ZM21 10L21 11L22 11L22 10ZM52 10L52 11L51 11L51 12L52 12L52 13L54 13L54 14L53 14L53 15L55 15L55 14L56 14L56 13L55 13L55 12L54 12L54 11L53 11L53 10ZM13 11L13 12L14 12L14 11ZM23 11L23 12L24 12L24 11ZM28 11L28 12L30 12L30 14L31 14L31 12L30 12L30 11ZM48 11L48 12L49 12L49 11ZM52 11L52 12L53 12L53 11ZM9 12L9 13L10 13L10 12ZM20 12L20 13L22 13L22 12ZM16 13L16 14L17 14L17 15L18 15L18 13ZM10 14L10 16L9 16L9 15L7 15L7 16L6 16L6 17L7 17L7 18L6 18L6 19L9 19L9 17L10 17L10 19L11 19L11 17L10 17L10 16L11 16L11 14ZM40 14L40 15L41 15L41 14ZM4 15L4 17L5 17L5 15ZM22 15L22 17L23 17L23 19L24 19L24 17L26 17L26 16L23 16L23 15ZM30 15L30 16L31 16L31 15ZM44 15L44 16L45 16L45 17L47 17L47 16L45 16L45 15ZM20 17L20 18L19 18L19 19L20 19L20 20L19 20L19 21L21 21L21 17ZM53 17L53 18L54 18L54 17ZM30 18L30 20L28 20L28 21L27 21L27 22L26 22L26 23L25 23L25 24L24 24L24 23L23 23L23 22L24 22L24 21L23 21L23 20L22 20L22 21L23 21L23 22L22 22L22 23L23 23L23 24L20 24L20 26L19 26L19 25L15 25L15 26L16 26L16 28L17 28L17 29L16 29L16 30L17 30L17 29L18 29L18 28L17 28L17 27L18 27L18 26L19 26L19 28L21 28L21 29L19 29L19 30L18 30L18 31L19 31L19 32L21 32L21 33L20 33L20 34L21 34L21 33L25 33L25 34L22 34L22 35L25 35L25 34L31 34L31 33L32 33L32 34L33 34L33 35L34 35L34 34L35 34L35 36L37 36L37 35L36 35L36 34L35 34L35 33L36 33L36 32L35 32L35 31L33 31L33 30L32 30L32 29L33 29L33 28L34 28L34 27L35 27L35 26L36 26L36 24L37 24L37 23L38 23L38 24L39 24L39 23L38 23L38 22L35 22L35 21L34 21L34 20L32 20L32 19L34 19L34 18ZM38 18L38 19L39 19L39 18ZM41 18L41 19L43 19L43 20L44 20L44 22L45 22L45 20L44 20L44 19L43 19L43 18ZM49 18L49 19L50 19L50 18ZM13 19L13 20L14 20L14 19ZM6 20L6 21L7 21L7 20ZM8 20L8 21L9 21L9 22L8 22L8 23L7 23L7 22L6 22L6 23L7 23L7 24L6 24L6 25L7 25L7 24L9 24L9 22L11 22L11 23L10 23L10 24L11 24L11 23L12 23L12 24L13 24L13 23L12 23L12 22L11 22L11 20ZM30 20L30 22L31 22L31 23L30 23L30 24L29 24L29 22L27 22L27 23L28 23L28 24L29 24L29 26L26 26L26 25L22 25L22 27L21 27L21 26L20 26L20 27L21 27L21 28L22 28L22 29L21 29L21 30L20 30L20 31L21 31L21 32L27 32L27 33L30 33L30 32L29 32L29 31L31 31L31 32L33 32L33 31L31 31L31 28L33 28L33 27L34 27L34 26L33 26L33 27L31 27L31 26L32 26L32 24L33 24L33 25L34 25L34 23L35 23L35 24L36 24L36 23L35 23L35 22L32 22L32 20ZM46 21L46 22L47 22L47 23L46 23L46 24L47 24L47 23L48 23L48 22L47 22L47 21ZM31 23L31 24L30 24L30 25L31 25L31 24L32 24L32 23ZM3 24L3 27L1 27L1 28L2 28L2 29L3 29L3 30L4 30L4 28L3 28L3 27L4 27L4 24ZM5 27L5 30L8 30L8 27ZM14 27L14 30L15 30L15 27ZM25 27L25 28L23 28L23 29L22 29L22 31L24 31L24 30L23 30L23 29L26 29L26 27ZM27 27L27 30L30 30L30 27ZM49 27L49 30L52 30L52 27ZM56 27L56 28L57 28L57 27ZM6 28L6 29L7 29L7 28ZM12 28L12 30L13 30L13 28ZM28 28L28 29L29 29L29 28ZM36 28L36 29L37 29L37 28ZM50 28L50 29L51 29L51 28ZM46 30L46 31L47 31L47 32L48 32L48 33L47 33L47 34L48 34L48 33L49 33L49 32L48 32L48 31L47 31L47 30ZM6 32L6 33L7 33L7 32ZM34 32L34 33L33 33L33 34L34 34L34 33L35 33L35 32ZM39 32L39 33L41 33L41 32ZM54 32L54 33L55 33L55 34L56 34L56 33L55 33L55 32ZM16 33L16 34L17 34L17 35L19 35L19 33ZM49 34L49 35L50 35L50 34ZM22 36L22 37L24 37L24 36ZM27 36L27 37L29 37L29 36ZM13 37L13 38L14 38L14 39L13 39L13 40L14 40L14 39L15 39L15 38L16 38L16 37L15 37L15 38L14 38L14 37ZM28 38L28 41L29 41L29 38ZM6 39L6 40L7 40L7 41L6 41L6 42L8 42L8 39ZM11 39L11 40L10 40L10 41L12 41L12 42L13 42L13 41L12 41L12 39ZM17 39L17 40L18 40L18 39ZM42 39L42 40L43 40L43 39ZM51 39L51 40L52 40L52 39ZM39 41L39 42L40 42L40 41ZM49 41L49 43L48 43L48 44L47 44L47 43L45 43L45 44L44 44L44 45L45 45L45 46L41 46L41 47L42 47L42 48L43 48L43 50L45 50L45 48L44 48L44 47L45 47L45 46L47 46L47 47L46 47L46 48L47 48L47 49L46 49L46 50L48 50L48 48L49 48L49 47L48 47L48 46L47 46L47 45L49 45L49 44L50 44L50 43L51 43L51 41ZM56 41L56 42L57 42L57 41ZM17 42L17 43L18 43L18 42ZM26 42L26 43L28 43L28 42ZM52 43L52 44L53 44L53 43ZM15 44L15 45L16 45L16 48L17 48L17 46L18 46L18 45L16 45L16 44ZM25 44L25 45L26 45L26 44ZM27 44L27 45L29 45L29 44ZM45 44L45 45L46 45L46 44ZM54 46L54 47L55 47L55 46ZM28 47L28 48L29 48L29 47ZM47 47L47 48L48 48L48 47ZM27 49L27 52L30 52L30 49ZM49 49L49 52L52 52L52 49ZM22 50L22 51L24 51L24 50ZM28 50L28 51L29 51L29 50ZM50 50L50 51L51 51L51 50ZM31 51L31 52L32 52L32 53L31 53L31 54L30 54L30 53L29 53L29 54L26 54L26 53L25 53L25 55L29 55L29 54L30 54L30 55L31 55L31 56L32 56L32 55L31 55L31 54L32 54L32 53L33 53L33 52L32 52L32 51ZM40 51L40 52L41 52L41 51ZM43 51L43 52L44 52L44 53L43 53L43 54L42 54L42 55L41 55L41 56L42 56L42 55L43 55L43 56L44 56L44 55L43 55L43 54L44 54L44 53L45 53L45 52L44 52L44 51ZM46 51L46 52L47 52L47 53L48 53L48 54L49 54L49 53L48 53L48 51ZM13 52L13 53L14 53L14 52ZM17 53L17 54L18 54L18 53ZM22 53L22 54L23 54L23 53ZM9 54L9 55L10 55L10 56L11 56L11 55L12 55L12 54L11 54L11 55L10 55L10 54ZM50 54L50 56L51 56L51 54ZM0 0L0 7L7 7L7 0ZM1 1L1 6L6 6L6 1ZM2 2L2 5L5 5L5 2ZM50 0L50 7L57 7L57 0ZM51 1L51 6L56 6L56 1ZM52 2L52 5L55 5L55 2ZM0 50L0 57L7 57L7 50ZM1 51L1 56L6 56L6 51ZM2 52L2 55L5 55L5 52Z" fill="#000000"/></g></g></svg>
