<?xml version="1.0" encoding="UTF-8"?>
<svg xmlns="http://www.w3.org/2000/svg" version="1.1" width="250" height="250" viewBox="0 0 250 250"><rect x="0" y="0" width="250" height="250" fill="#ffffff"/><g transform="scale(4.386)"><g transform="translate(0,0)"><path fill-rule="evenodd" d="M9 0L9 1L8 1L8 2L11 2L11 4L10 4L10 3L8 3L8 4L9 4L9 5L8 5L8 7L9 7L9 6L10 6L10 7L11 7L11 8L10 8L10 9L9 9L9 8L6 8L6 9L5 9L5 8L0 8L0 9L2 9L2 10L0 10L0 12L3 12L3 13L0 13L0 16L1 16L1 14L2 14L2 17L0 17L0 18L2 18L2 19L0 19L0 21L1 21L1 23L2 23L2 22L5 22L5 23L3 23L3 24L2 24L2 25L0 25L0 27L1 27L1 28L2 28L2 27L3 27L3 28L4 28L4 30L3 30L3 29L2 29L2 32L4 32L4 31L7 31L7 32L5 32L5 33L3 33L3 34L1 34L1 33L0 33L0 36L1 36L1 37L0 37L0 39L1 39L1 40L2 40L2 42L4 42L4 43L3 43L3 44L2 44L2 43L1 43L1 42L0 42L0 44L2 44L2 45L3 45L3 46L2 46L2 47L1 47L1 45L0 45L0 48L5 48L5 47L7 47L7 48L6 48L6 49L7 49L7 48L8 48L8 51L10 51L10 49L12 49L12 50L11 50L11 51L12 51L12 52L10 52L10 54L9 54L9 52L8 52L8 57L9 57L9 56L10 56L10 57L12 57L12 56L11 56L11 53L12 53L12 55L13 55L13 56L14 56L14 57L17 57L17 55L18 55L18 57L19 57L19 55L20 55L20 54L17 54L17 53L20 53L20 52L19 52L19 51L20 51L20 49L21 49L21 53L22 53L22 54L24 54L24 53L25 53L25 51L24 51L24 53L22 53L22 52L23 52L23 51L22 51L22 50L25 50L25 49L26 49L26 54L25 54L25 55L27 55L27 57L28 57L28 56L30 56L30 57L32 57L32 56L34 56L34 55L35 55L35 54L34 54L34 53L33 53L33 54L31 54L31 56L30 56L30 55L28 55L28 54L30 54L30 53L32 53L32 52L33 52L33 51L35 51L35 50L34 50L34 49L32 49L32 50L33 50L33 51L32 51L32 52L31 52L31 48L33 48L33 47L35 47L35 49L37 49L37 50L36 50L36 51L38 51L38 52L36 52L36 53L37 53L37 54L36 54L36 55L37 55L37 56L35 56L35 57L39 57L39 55L40 55L40 56L41 56L41 57L44 57L44 56L45 56L45 57L46 57L46 56L45 56L45 55L44 55L44 54L43 54L43 53L44 53L44 52L45 52L45 54L46 54L46 55L47 55L47 54L46 54L46 53L49 53L49 54L48 54L48 56L47 56L47 57L48 57L48 56L50 56L50 57L51 57L51 56L52 56L52 54L54 54L54 55L53 55L53 56L55 56L55 57L56 57L56 56L55 56L55 53L53 53L53 52L56 52L56 50L57 50L57 49L55 49L55 51L54 51L54 49L53 49L53 48L56 48L56 46L57 46L57 45L56 45L56 44L55 44L55 43L56 43L56 42L57 42L57 41L55 41L55 42L53 42L53 43L52 43L52 44L51 44L51 43L50 43L50 44L49 44L49 46L48 46L48 45L47 45L47 44L48 44L48 43L49 43L49 42L52 42L52 41L54 41L54 40L55 40L55 39L57 39L57 37L56 37L56 34L57 34L57 32L56 32L56 30L57 30L57 28L56 28L56 27L53 27L53 25L52 25L52 24L53 24L53 23L52 23L52 22L53 22L53 21L52 21L52 20L55 20L55 19L56 19L56 20L57 20L57 19L56 19L56 18L57 18L57 16L55 16L55 13L52 13L52 12L53 12L53 11L54 11L54 12L55 12L55 11L54 11L54 10L52 10L52 8L51 8L51 10L50 10L50 11L49 11L49 9L50 9L50 8L49 8L49 6L48 6L48 7L47 7L47 5L48 5L48 0L44 0L44 1L45 1L45 2L44 2L44 3L43 3L43 2L42 2L42 1L43 1L43 0L42 0L42 1L40 1L40 0L39 0L39 1L38 1L38 2L39 2L39 1L40 1L40 3L41 3L41 4L39 4L39 3L38 3L38 4L37 4L37 3L35 3L35 2L37 2L37 0L36 0L36 1L32 1L32 0L30 0L30 1L32 1L32 3L31 3L31 2L30 2L30 4L28 4L28 3L29 3L29 1L28 1L28 0L27 0L27 1L26 1L26 0L24 0L24 1L26 1L26 2L27 2L27 1L28 1L28 3L27 3L27 4L26 4L26 3L25 3L25 2L24 2L24 3L23 3L23 4L19 4L19 3L21 3L21 2L22 2L22 1L23 1L23 0L21 0L21 1L20 1L20 0L19 0L19 1L18 1L18 2L16 2L16 1L15 1L15 0L14 0L14 1L13 1L13 2L11 2L11 1L10 1L10 0ZM19 1L19 2L20 2L20 1ZM46 1L46 2L47 2L47 1ZM14 2L14 4L13 4L13 3L12 3L12 4L11 4L11 7L12 7L12 8L13 8L13 7L14 7L14 6L15 6L15 7L16 7L16 8L18 8L18 6L17 6L17 5L19 5L19 7L20 7L20 5L19 5L19 4L17 4L17 3L16 3L16 2ZM33 2L33 3L32 3L32 5L31 5L31 7L32 7L32 8L31 8L31 9L32 9L32 10L30 10L30 12L29 12L29 11L28 11L28 12L27 12L27 11L26 11L26 10L29 10L29 9L26 9L26 10L25 10L25 11L26 11L26 12L23 12L23 13L22 13L22 12L21 12L21 11L22 11L22 10L21 10L21 9L23 9L23 8L24 8L24 9L25 9L25 8L26 8L26 4L25 4L25 8L24 8L24 6L23 6L23 5L24 5L24 4L23 4L23 5L22 5L22 6L21 6L21 7L22 7L22 6L23 6L23 8L21 8L21 9L20 9L20 10L19 10L19 9L15 9L15 8L14 8L14 9L13 9L13 10L14 10L14 9L15 9L15 10L17 10L17 11L16 11L16 12L17 12L17 13L13 13L13 15L14 15L14 17L15 17L15 18L13 18L13 19L14 19L14 20L13 20L13 21L14 21L14 22L10 22L10 23L9 23L9 20L8 20L8 19L9 19L9 18L8 18L8 17L9 17L9 15L8 15L8 14L9 14L9 13L8 13L8 12L9 12L9 11L12 11L12 10L11 10L11 9L10 9L10 10L9 10L9 9L6 9L6 10L7 10L7 11L6 11L6 12L7 12L7 13L6 13L6 14L7 14L7 15L5 15L5 11L4 11L4 15L3 15L3 17L2 17L2 18L4 18L4 20L5 20L5 17L6 17L6 18L8 18L8 19L6 19L6 20L8 20L8 21L5 21L5 22L7 22L7 23L6 23L6 24L7 24L7 25L6 25L6 26L8 26L8 23L9 23L9 24L10 24L10 25L9 25L9 26L10 26L10 27L9 27L9 28L10 28L10 29L11 29L11 30L12 30L12 29L13 29L13 33L11 33L11 32L12 32L12 31L10 31L10 30L9 30L9 31L8 31L8 32L7 32L7 33L5 33L5 34L3 34L3 35L5 35L5 34L7 34L7 35L6 35L6 36L8 36L8 37L10 37L10 38L9 38L9 39L8 39L8 38L7 38L7 37L6 37L6 38L7 38L7 39L6 39L6 40L7 40L7 41L5 41L5 40L4 40L4 39L5 39L5 38L4 38L4 39L3 39L3 36L2 36L2 37L1 37L1 39L2 39L2 40L3 40L3 41L5 41L5 42L7 42L7 43L6 43L6 44L3 44L3 45L6 45L6 46L7 46L7 45L8 45L8 46L10 46L10 47L11 47L11 46L12 46L12 45L11 45L11 44L10 44L10 43L8 43L8 42L9 42L9 41L12 41L12 42L11 42L11 43L12 43L12 44L13 44L13 46L15 46L15 48L14 48L14 47L13 47L13 49L14 49L14 50L13 50L13 52L12 52L12 53L13 53L13 54L14 54L14 53L15 53L15 54L16 54L16 53L17 53L17 51L19 51L19 49L18 49L18 48L17 48L17 45L18 45L18 44L17 44L17 43L18 43L18 42L19 42L19 48L20 48L20 46L21 46L21 47L22 47L22 48L21 48L21 49L25 49L25 48L24 48L24 47L25 47L25 46L26 46L26 45L25 45L25 44L24 44L24 43L27 43L27 44L29 44L29 43L30 43L30 46L31 46L31 47L29 47L29 45L28 45L28 46L27 46L27 48L31 48L31 47L33 47L33 46L36 46L36 48L38 48L38 50L39 50L39 48L40 48L40 49L41 49L41 50L40 50L40 52L38 52L38 54L37 54L37 55L38 55L38 54L39 54L39 53L41 53L41 54L40 54L40 55L43 55L43 54L42 54L42 53L43 53L43 52L44 52L44 51L43 51L43 50L42 50L42 49L41 49L41 48L42 48L42 47L43 47L43 49L45 49L45 50L47 50L47 51L46 51L46 52L47 52L47 51L48 51L48 48L47 48L47 49L45 49L45 48L46 48L46 46L47 46L47 45L46 45L46 44L47 44L47 43L48 43L48 42L49 42L49 41L51 41L51 40L53 40L53 39L55 39L55 38L54 38L54 37L55 37L55 36L53 36L53 35L52 35L52 36L50 36L50 35L51 35L51 34L50 34L50 33L52 33L52 34L54 34L54 35L55 35L55 34L54 34L54 33L56 33L56 32L54 32L54 33L52 33L52 32L53 32L53 31L55 31L55 30L56 30L56 28L53 28L53 29L54 29L54 30L53 30L53 31L52 31L52 32L50 32L50 31L48 31L48 28L47 28L47 27L48 27L48 26L47 26L47 25L50 25L50 26L51 26L51 25L50 25L50 24L51 24L51 23L49 23L49 22L51 22L51 20L50 20L50 18L52 18L52 19L55 19L55 18L56 18L56 17L55 17L55 16L52 16L52 15L50 15L50 14L51 14L51 12L52 12L52 10L51 10L51 12L49 12L49 11L47 11L47 12L44 12L44 11L46 11L46 10L47 10L47 9L49 9L49 8L47 8L47 9L46 9L46 6L45 6L45 8L43 8L43 7L44 7L44 6L43 6L43 5L40 5L40 6L39 6L39 7L40 7L40 6L41 6L41 8L40 8L40 9L41 9L41 10L40 10L40 11L38 11L38 10L39 10L39 8L37 8L37 7L38 7L38 5L39 5L39 4L38 4L38 5L36 5L36 6L35 6L35 7L34 7L34 6L33 6L33 5L35 5L35 3L34 3L34 2ZM41 2L41 3L42 3L42 2ZM44 3L44 5L47 5L47 3ZM12 4L12 7L13 7L13 4ZM14 4L14 5L16 5L16 4ZM27 5L27 8L30 8L30 5ZM16 6L16 7L17 7L17 6ZM28 6L28 7L29 7L29 6ZM32 6L32 7L33 7L33 6ZM36 6L36 7L37 7L37 6ZM42 6L42 7L43 7L43 6ZM33 8L33 11L31 11L31 13L32 13L32 14L33 14L33 15L31 15L31 14L30 14L30 13L27 13L27 12L26 12L26 14L25 14L25 13L23 13L23 14L22 14L22 13L21 13L21 12L20 12L20 13L19 13L19 10L18 10L18 11L17 11L17 12L18 12L18 13L17 13L17 14L16 14L16 15L17 15L17 17L19 17L19 18L20 18L20 17L21 17L21 19L24 19L24 21L21 21L21 22L24 22L24 21L25 21L25 22L26 22L26 23L25 23L25 24L27 24L27 25L24 25L24 23L23 23L23 25L21 25L21 24L20 24L20 25L21 25L21 26L20 26L20 28L19 28L19 29L18 29L18 28L17 28L17 27L18 27L18 25L19 25L19 23L20 23L20 22L17 22L17 21L20 21L20 19L19 19L19 20L17 20L17 21L16 21L16 19L18 19L18 18L15 18L15 21L16 21L16 22L15 22L15 23L12 23L12 24L13 24L13 25L10 25L10 26L11 26L11 27L10 27L10 28L11 28L11 29L12 29L12 28L11 28L11 27L13 27L13 25L14 25L14 24L15 24L15 27L16 27L16 28L15 28L15 29L14 29L14 28L13 28L13 29L14 29L14 31L15 31L15 32L14 32L14 33L13 33L13 34L15 34L15 36L17 36L17 37L19 37L19 38L18 38L18 39L17 39L17 40L16 40L16 39L15 39L15 38L16 38L16 37L14 37L14 39L13 39L13 40L15 40L15 42L14 42L14 43L13 43L13 44L15 44L15 45L16 45L16 43L17 43L17 42L18 42L18 41L21 41L21 38L23 38L23 39L24 39L24 40L23 40L23 41L22 41L22 43L21 43L21 42L20 42L20 43L21 43L21 44L20 44L20 45L21 45L21 46L22 46L22 47L23 47L23 46L25 46L25 45L23 45L23 42L25 42L25 41L24 41L24 40L25 40L25 39L26 39L26 38L25 38L25 37L26 37L26 36L25 36L25 35L26 35L26 34L25 34L25 33L26 33L26 32L25 32L25 31L28 31L28 32L27 32L27 36L29 36L29 38L30 38L30 39L32 39L32 36L33 36L33 35L37 35L37 36L36 36L36 38L33 38L33 42L32 42L32 41L31 41L31 40L30 40L30 41L31 41L31 42L30 42L30 43L31 43L31 44L33 44L33 45L32 45L32 46L33 46L33 45L34 45L34 44L33 44L33 42L34 42L34 43L36 43L36 42L38 42L38 43L37 43L37 44L35 44L35 45L36 45L36 46L37 46L37 44L38 44L38 45L39 45L39 46L38 46L38 48L39 48L39 46L40 46L40 48L41 48L41 46L40 46L40 44L41 44L41 43L40 43L40 42L43 42L43 41L44 41L44 42L45 42L45 41L47 41L47 40L48 40L48 39L49 39L49 36L48 36L48 35L50 35L50 34L49 34L49 32L48 32L48 31L47 31L47 30L46 30L46 31L47 31L47 32L48 32L48 33L47 33L47 34L45 34L45 33L44 33L44 34L45 34L45 35L44 35L44 36L43 36L43 35L42 35L42 34L43 34L43 32L45 32L45 31L43 31L43 32L41 32L41 31L42 31L42 30L43 30L43 29L44 29L44 30L45 30L45 29L47 29L47 28L46 28L46 27L47 27L47 26L44 26L44 25L41 25L41 27L40 27L40 28L41 28L41 27L42 27L42 28L43 28L43 29L42 29L42 30L41 30L41 29L39 29L39 26L40 26L40 24L41 24L41 23L39 23L39 22L38 22L38 21L39 21L39 20L42 20L42 21L41 21L41 22L44 22L44 20L45 20L45 19L48 19L48 20L49 20L49 19L48 19L48 18L49 18L49 17L47 17L47 18L45 18L45 17L46 17L46 16L50 16L50 15L47 15L47 14L49 14L49 13L47 13L47 14L46 14L46 16L45 16L45 14L44 14L44 12L43 12L43 11L40 11L40 12L41 12L41 13L42 13L42 14L43 14L43 15L42 15L42 18L41 18L41 17L40 17L40 16L41 16L41 15L40 15L40 13L39 13L39 12L38 12L38 13L37 13L37 12L35 12L35 10L37 10L37 8L35 8L35 10L34 10L34 8ZM53 8L53 9L54 9L54 8ZM55 8L55 10L57 10L57 9L56 9L56 8ZM3 9L3 10L2 10L2 11L3 11L3 10L4 10L4 9ZM42 9L42 10L43 10L43 9ZM44 9L44 10L45 10L45 9ZM8 10L8 11L7 11L7 12L8 12L8 11L9 11L9 10ZM20 10L20 11L21 11L21 10ZM23 10L23 11L24 11L24 10ZM13 11L13 12L14 12L14 11ZM56 11L56 12L57 12L57 11ZM11 12L11 13L10 13L10 14L12 14L12 12ZM32 12L32 13L33 13L33 14L35 14L35 15L34 15L34 16L31 16L31 15L30 15L30 14L28 14L28 16L27 16L27 14L26 14L26 15L24 15L24 16L23 16L23 15L22 15L22 14L21 14L21 13L20 13L20 14L19 14L19 17L20 17L20 16L21 16L21 15L22 15L22 17L23 17L23 18L24 18L24 19L25 19L25 21L26 21L26 20L27 20L27 22L30 22L30 23L29 23L29 24L28 24L28 23L27 23L27 24L28 24L28 25L27 25L27 26L29 26L29 25L31 25L31 26L32 26L32 25L31 25L31 24L33 24L33 23L31 23L31 22L32 22L32 21L33 21L33 22L35 22L35 23L34 23L34 24L36 24L36 22L37 22L37 25L38 25L38 26L39 26L39 25L38 25L38 24L39 24L39 23L38 23L38 22L37 22L37 21L35 21L35 20L37 20L37 19L38 19L38 18L39 18L39 17L38 17L38 16L39 16L39 15L38 15L38 14L39 14L39 13L38 13L38 14L35 14L35 12ZM56 13L56 14L57 14L57 13ZM14 14L14 15L15 15L15 14ZM17 14L17 15L18 15L18 14ZM20 14L20 15L21 15L21 14ZM7 15L7 16L6 16L6 17L8 17L8 15ZM10 15L10 16L11 16L11 17L10 17L10 18L11 18L11 17L12 17L12 16L11 16L11 15ZM29 15L29 16L28 16L28 17L27 17L27 16L26 16L26 17L24 17L24 18L25 18L25 19L26 19L26 17L27 17L27 18L28 18L28 19L27 19L27 20L29 20L29 21L30 21L30 22L31 22L31 21L32 21L32 20L34 20L34 19L35 19L35 18L34 18L34 19L32 19L32 20L30 20L30 19L29 19L29 18L31 18L31 16L30 16L30 15ZM43 15L43 18L42 18L42 20L44 20L44 17L45 17L45 16L44 16L44 15ZM15 16L15 17L16 17L16 16ZM35 16L35 17L36 17L36 18L38 18L38 17L37 17L37 16ZM32 17L32 18L33 18L33 17ZM52 17L52 18L54 18L54 17ZM40 18L40 19L41 19L41 18ZM10 19L10 21L11 21L11 19ZM2 20L2 21L3 21L3 20ZM47 21L47 22L46 22L46 23L47 23L47 24L48 24L48 23L47 23L47 22L49 22L49 21ZM55 21L55 23L54 23L54 24L56 24L56 22L57 22L57 21ZM10 23L10 24L11 24L11 23ZM15 23L15 24L16 24L16 23ZM30 23L30 24L31 24L31 23ZM42 23L42 24L43 24L43 23ZM44 23L44 24L45 24L45 23ZM3 24L3 25L4 25L4 26L5 26L5 25L4 25L4 24ZM16 25L16 27L17 27L17 25ZM34 25L34 26L33 26L33 28L32 28L32 27L31 27L31 31L29 31L29 33L28 33L28 34L29 34L29 35L30 35L30 34L29 34L29 33L30 33L30 32L31 32L31 36L32 36L32 33L33 33L33 34L36 34L36 33L35 33L35 32L37 32L37 33L38 33L38 34L37 34L37 35L38 35L38 36L37 36L37 37L38 37L38 38L36 38L36 39L35 39L35 40L37 40L37 41L38 41L38 42L40 42L40 41L42 41L42 40L40 40L40 38L41 38L41 39L43 39L43 38L44 38L44 37L45 37L45 36L44 36L44 37L43 37L43 38L42 38L42 37L41 37L41 36L39 36L39 35L38 35L38 34L40 34L40 35L41 35L41 34L42 34L42 33L41 33L41 32L40 32L40 33L38 33L38 32L39 32L39 31L38 31L38 30L39 30L39 29L38 29L38 30L37 30L37 31L33 31L33 32L32 32L32 29L33 29L33 30L35 30L35 28L36 28L36 27L34 27L34 26L35 26L35 25ZM54 25L54 26L55 26L55 25ZM56 25L56 26L57 26L57 25ZM22 26L22 27L21 27L21 28L22 28L22 29L20 29L20 30L18 30L18 29L15 29L15 30L16 30L16 32L17 32L17 30L18 30L18 31L19 31L19 32L21 32L21 33L20 33L20 34L21 34L21 35L18 35L18 36L19 36L19 37L21 37L21 35L22 35L22 37L23 37L23 38L24 38L24 37L23 37L23 35L22 35L22 34L21 34L21 33L23 33L23 32L21 32L21 31L20 31L20 30L22 30L22 31L23 31L23 29L26 29L26 26L24 26L24 27L23 27L23 26ZM42 26L42 27L43 27L43 28L44 28L44 29L45 29L45 27L44 27L44 26ZM5 27L5 30L8 30L8 27ZM24 27L24 28L25 28L25 27ZM27 27L27 30L30 30L30 27ZM49 27L49 30L52 30L52 27ZM6 28L6 29L7 29L7 28ZM28 28L28 29L29 29L29 28ZM33 28L33 29L34 29L34 28ZM50 28L50 29L51 29L51 28ZM0 29L0 32L1 32L1 29ZM40 30L40 31L41 31L41 30ZM8 32L8 33L9 33L9 32ZM24 32L24 33L25 33L25 32ZM33 32L33 33L34 33L34 32ZM10 33L10 34L8 34L8 36L9 36L9 35L11 35L11 36L10 36L10 37L11 37L11 38L10 38L10 39L11 39L11 40L12 40L12 37L13 37L13 36L14 36L14 35L13 35L13 36L12 36L12 35L11 35L11 33ZM16 33L16 34L19 34L19 33ZM40 33L40 34L41 34L41 33ZM47 34L47 35L46 35L46 36L47 36L47 37L46 37L46 38L47 38L47 39L48 39L48 38L47 38L47 37L48 37L48 36L47 36L47 35L48 35L48 34ZM34 36L34 37L35 37L35 36ZM38 36L38 37L39 37L39 38L38 38L38 39L39 39L39 38L40 38L40 37L39 37L39 36ZM52 36L52 37L53 37L53 36ZM27 37L27 38L28 38L28 37ZM50 37L50 38L51 38L51 37ZM19 38L19 39L18 39L18 40L19 40L19 39L20 39L20 38ZM7 39L7 40L8 40L8 41L9 41L9 40L8 40L8 39ZM27 39L27 41L26 41L26 42L27 42L27 43L29 43L29 42L27 42L27 41L29 41L29 40L28 40L28 39ZM45 39L45 40L44 40L44 41L45 41L45 40L46 40L46 39ZM50 39L50 40L51 40L51 39ZM38 40L38 41L39 41L39 40ZM16 41L16 42L17 42L17 41ZM34 41L34 42L36 42L36 41ZM46 42L46 43L44 43L44 44L46 44L46 43L47 43L47 42ZM7 43L7 44L6 44L6 45L7 45L7 44L8 44L8 45L10 45L10 46L11 46L11 45L10 45L10 44L8 44L8 43ZM21 44L21 45L22 45L22 46L23 46L23 45L22 45L22 44ZM53 44L53 45L52 45L52 46L51 46L51 45L50 45L50 47L49 47L49 48L50 48L50 47L51 47L51 48L53 48L53 47L54 47L54 46L53 46L53 45L55 45L55 46L56 46L56 45L55 45L55 44ZM42 45L42 46L43 46L43 45ZM44 45L44 48L45 48L45 45ZM3 46L3 47L5 47L5 46ZM8 47L8 48L9 48L9 49L10 49L10 48L9 48L9 47ZM16 48L16 49L15 49L15 50L14 50L14 51L15 51L15 53L16 53L16 51L17 51L17 50L16 50L16 49L17 49L17 48ZM27 49L27 52L30 52L30 49ZM49 49L49 52L52 52L52 49ZM28 50L28 51L29 51L29 50ZM41 50L41 51L42 51L42 52L43 52L43 51L42 51L42 50ZM50 50L50 51L51 51L51 50ZM27 53L27 54L28 54L28 53ZM50 53L50 54L51 54L51 53ZM14 55L14 56L16 56L16 55ZM21 55L21 56L20 56L20 57L22 57L22 55ZM23 55L23 56L24 56L24 55ZM50 55L50 56L51 56L51 55ZM0 0L0 7L7 7L7 0ZM1 1L1 6L6 6L6 1ZM2 2L2 5L5 5L5 2ZM50 0L50 7L57 7L57 0ZM51 1L51 6L56 6L56 1ZM52 2L52 5L55 5L55 2ZM0 50L0 57L7 57L7 50ZM1 51L1 56L6 56L6 51ZM2 52L2 55L5 55L5 52Z" fill="#000000"/></g></g></svg>
